<?xml version="1.0" encoding="UTF-8" standalone="no"?>
<!-- Created with Inkscape (http://www.inkscape.org/) -->

<svg
   version="1.1"
   id="svg1"
   width="1496"
   height="1496"
   viewBox="0 0 1496 1496"
   sodipodi:docname="5559.eps"
   xmlns:inkscape="http://www.inkscape.org/namespaces/inkscape"
   xmlns:sodipodi="http://sodipodi.sourceforge.net/DTD/sodipodi-0.dtd"
   xmlns="http://www.w3.org/2000/svg"
   xmlns:svg="http://www.w3.org/2000/svg">
  <defs
     id="defs1" />
  <sodipodi:namedview
     id="namedview1"
     pagecolor="#ffffff"
     bordercolor="#000000"
     borderopacity="0.25"
     inkscape:showpageshadow="2"
     inkscape:pageopacity="0.0"
     inkscape:pagecheckerboard="0"
     inkscape:deskcolor="#d1d1d1">
    <inkscape:page
       x="0"
       y="0"
       inkscape:label="1"
       id="page1"
       width="1496"
       height="1496"
       margin="0"
       bleed="0" />
  </sodipodi:namedview>
  <g
     id="g1"
     inkscape:groupmode="layer"
     inkscape:label="1">
    <g
       id="group-R5">
      <path
         id="path2"
         d="M 11220,0 H 0 V 11220 H 11220 V 0"
         style="fill:#ffffff;fill-opacity:1;fill-rule:nonzero;stroke:none"
         transform="matrix(0.13333333,0,0,-0.13333333,0,1496)" />
      <path
         id="path3"
         d="M 8464.58,4485.63 H 2743.21 V 7861.26 H 8464.58 Z M 2505.06,8262.42 c -101.94,0 -184.5,-82.7 -184.5,-184.74 V 4257.01 c 0,-101.94 82.56,-184.52 184.5,-184.52 h 6209.71 c 101.91,0 184.71,82.58 184.71,184.52 v 3820.67 c 0,102.04 -82.8,184.74 -184.71,184.74 H 2505.06"
         style="fill:#616e7d;fill-opacity:1;fill-rule:nonzero;stroke:none"
         transform="matrix(0.13333333,0,0,-0.13333333,0,1496)" />
      <path
         id="path4"
         d="M 8833.51,3992.75 H 2386.46 c -42.57,0 -83.94,-16.82 -116.98,-47.99 l -649.5,-610.74 c -134.42,-126.22 -56.83,-376.44 116.8,-376.44 h 7746.48 c 173.58,0 251.16,250.22 116.8,376.44 l -649.73,610.74 c -32.81,31.17 -74.21,47.99 -116.82,47.99"
         style="fill:#616e7d;fill-opacity:1;fill-rule:nonzero;stroke:none"
         transform="matrix(0.13333333,0,0,-0.13333333,0,1496)" />
      <path
         id="path5"
         d="m 2994.37,5559.51 h 2552.9 v -777.36 h -2552.9 z m 0,293.37 h 1238.46 v -153.9 H 2994.37 Z m 0,1721.7 H 8181.1 V 5991.44 H 2994.37 Z M 8181.1,5698.98 H 6942.49 v 153.9 H 8181.1 Z m -2554.66,0 v 153.9 h 1238.61 v -153.9 z M 8179.29,5451.72 H 5626.44 v 116.81 h 2552.85 z m 0,-200.2 H 5626.44 v 116.57 h 2552.85 z m 0,-200.45 H 5626.44 v 116.69 H 8179.29 Z M 6955.89,4850.63 H 5626.44 v 116.78 h 1329.45 z m -1407.07,848.35 h -1238.4 v 153.9 h 1238.4 z M 8464.58,4485.63 V 7861.26 H 2743.21 V 4485.63 h 5721.37"
         style="fill:#ffffff;fill-opacity:1;fill-rule:nonzero;stroke:none"
         transform="matrix(0.13333333,0,0,-0.13333333,0,1496)" />
      <path
         id="path6"
         d="M 8181.1,5991.44 V 7574.58 H 2994.37 V 5991.44 H 8181.1"
         style="fill:#aad4c8;fill-opacity:1;fill-rule:nonzero;stroke:none"
         transform="matrix(0.13333333,0,0,-0.13333333,0,1496)" />
      <path
         id="path7"
         d="m 4232.83,5698.98 v 153.9 H 2994.37 v -153.9 h 1238.46"
         style="fill:#82bfab;fill-opacity:1;fill-rule:nonzero;stroke:none"
         transform="matrix(0.13333333,0,0,-0.13333333,0,1496)" />
      <path
         id="path8"
         d="m 5547.27,4782.15 v 777.36 h -2552.9 v -777.36 h 2552.9"
         style="fill:#82bfab;fill-opacity:1;fill-rule:nonzero;stroke:none"
         transform="matrix(0.13333333,0,0,-0.13333333,0,1496)" />
      <path
         id="path9"
         d="m 5548.82,5698.98 v 153.9 h -1238.4 v -153.9 h 1238.4"
         style="fill:#82bfab;fill-opacity:1;fill-rule:nonzero;stroke:none"
         transform="matrix(0.13333333,0,0,-0.13333333,0,1496)" />
      <path
         id="path10"
         d="m 6865.05,5698.98 v 153.9 H 5626.44 v -153.9 h 1238.61"
         style="fill:#82bfab;fill-opacity:1;fill-rule:nonzero;stroke:none"
         transform="matrix(0.13333333,0,0,-0.13333333,0,1496)" />
      <path
         id="path11"
         d="m 8179.29,5451.72 v 116.81 H 5626.44 v -116.81 h 2552.85"
         style="fill:#aad4c8;fill-opacity:1;fill-rule:nonzero;stroke:none"
         transform="matrix(0.13333333,0,0,-0.13333333,0,1496)" />
      <path
         id="path12"
         d="m 8179.29,5251.52 v 116.57 H 5626.44 v -116.57 h 2552.85"
         style="fill:#aad4c8;fill-opacity:1;fill-rule:nonzero;stroke:none"
         transform="matrix(0.13333333,0,0,-0.13333333,0,1496)" />
      <path
         id="path13"
         d="m 8179.29,5051.07 v 116.69 H 5626.44 v -116.69 h 2552.85"
         style="fill:#aad4c8;fill-opacity:1;fill-rule:nonzero;stroke:none"
         transform="matrix(0.13333333,0,0,-0.13333333,0,1496)" />
      <path
         id="path14"
         d="m 6955.89,4850.63 v 116.78 H 5626.44 v -116.78 h 1329.45"
         style="fill:#aad4c8;fill-opacity:1;fill-rule:nonzero;stroke:none"
         transform="matrix(0.13333333,0,0,-0.13333333,0,1496)" />
      <path
         id="path15"
         d="m 8181.1,5698.98 v 153.9 H 6942.49 v -153.9 H 8181.1"
         style="fill:#82bfab;fill-opacity:1;fill-rule:nonzero;stroke:none"
         transform="matrix(0.13333333,0,0,-0.13333333,0,1496)" />
    </g>
  </g>
</svg>
