<?xml version="1.0" encoding="utf-8"?>
<!-- Generator: Adobe Illustrator 13.0.0, SVG Export Plug-In . SVG Version: 6.00 Build 14948)  -->
<!DOCTYPE svg PUBLIC "-//W3C//DTD SVG 1.1//EN" "http://www.w3.org/Graphics/SVG/1.1/DTD/svg11.dtd">
<svg version="1.1" id="Layer_1" xmlns="http://www.w3.org/2000/svg" xmlns:xlink="http://www.w3.org/1999/xlink" x="0px" y="0px"
	 width="35.93px" height="32px" viewBox="0 0 35.93 32" enable-background="new 0 0 35.93 32" xml:space="preserve">
<path fill="#009999" d="M29.541,10.361c-0.382-0.131-0.768-0.253-1.156-0.365c0.065-0.267,0.125-0.53,0.179-0.789
	c0.876-4.25,0.303-7.674-1.651-8.801c-1.875-1.081-4.94,0.046-8.036,2.741c-0.305,0.266-0.604,0.54-0.895,0.82
	c-0.195-0.187-0.394-0.37-0.596-0.549c-3.244-2.881-6.496-4.095-8.449-2.965C7.064,1.538,6.509,4.756,7.298,8.784
	c0.078,0.399,0.166,0.796,0.265,1.19c-0.46,0.131-0.904,0.27-1.329,0.418C2.429,11.719,0,13.797,0,15.954
	c0,2.226,2.607,4.46,6.57,5.814c0.321,0.109,0.645,0.211,0.971,0.305c-0.105,0.424-0.2,0.852-0.282,1.281
	c-0.751,3.959-0.164,7.102,1.703,8.178c1.93,1.113,5.167-0.03,8.319-2.786c0.256-0.224,0.506-0.454,0.75-0.69
	c0.315,0.304,0.639,0.6,0.971,0.886c3.054,2.628,6.07,3.688,7.936,2.608c1.928-1.115,2.554-4.492,1.74-8.6
	c-0.063-0.321-0.136-0.641-0.215-0.959c0.228-0.068,0.45-0.137,0.668-0.209c4.119-1.365,6.799-3.571,6.799-5.828
	C35.93,13.79,33.422,11.697,29.541,10.361z M28.649,20.324c-0.197,0.064-0.398,0.127-0.604,0.188
	c-0.455-1.439-1.068-2.97-1.819-4.552c0.716-1.544,1.307-3.055,1.748-4.485c0.368,0.106,0.725,0.219,1.068,0.337
	c3.325,1.145,5.353,2.837,5.353,4.141C34.395,17.342,32.204,19.146,28.649,20.324z M27.172,23.248
	c0.36,1.816,0.411,3.458,0.173,4.742c-0.214,1.153-0.644,1.922-1.176,2.23c-1.133,0.655-3.554-0.196-6.166-2.443
	c-0.309-0.267-0.609-0.541-0.903-0.824c1.013-1.107,2.024-2.395,3.012-3.824c1.737-0.154,3.378-0.406,4.866-0.75
	C27.05,22.667,27.115,22.957,27.172,23.248z M12.249,30.107c-1.106,0.391-1.987,0.402-2.52,0.095
	c-1.134-0.653-1.604-3.177-0.962-6.562c0.076-0.4,0.163-0.798,0.262-1.193c1.472,0.326,3.101,0.561,4.842,0.701
	c0.994,1.398,2.035,2.685,3.085,3.811c-0.224,0.216-0.451,0.426-0.685,0.631C14.877,28.809,13.481,29.672,12.249,30.107z
	 M7.067,20.315c-1.752-0.599-3.199-1.377-4.19-2.227c-0.892-0.763-1.341-1.521-1.341-2.135c0-1.309,1.95-2.978,5.203-4.111
	c0.396-0.138,0.809-0.268,1.237-0.389c0.449,1.462,1.039,2.991,1.751,4.538c-0.721,1.57-1.319,3.123-1.773,4.603
	C7.656,20.508,7.36,20.415,7.067,20.315z M8.804,8.489C8.129,5.039,8.577,2.436,9.705,1.782c1.202-0.696,3.86,0.296,6.662,2.784
	c0.183,0.163,0.362,0.329,0.539,0.498c-1.044,1.121-2.075,2.397-3.061,3.788c-1.69,0.156-3.308,0.408-4.795,0.745
	C8.959,9.229,8.877,8.86,8.804,8.489L8.804,8.489z M24.303,12.316c-0.352-0.606-0.716-1.206-1.093-1.797
	c1.146,0.145,2.244,0.337,3.276,0.573c-0.311,0.993-0.696,2.03-1.15,3.094C25.004,13.556,24.659,12.933,24.303,12.316z
	 M17.983,6.161c0.708,0.767,1.417,1.623,2.114,2.552c-1.415-0.067-2.832-0.067-4.247-0.001C16.548,7.792,17.263,6.937,17.983,6.161z
	 M11.621,12.327c-0.353,0.611-0.69,1.23-1.015,1.858c-0.446-1.06-0.829-2.103-1.142-3.109c1.025-0.229,2.119-0.417,3.258-0.56
	C12.342,11.111,11.974,11.715,11.621,12.327L11.621,12.327z M12.755,21.499c-1.177-0.132-2.286-0.31-3.311-0.532
	c0.317-1.024,0.708-2.089,1.164-3.172c0.325,0.627,0.665,1.248,1.019,1.859C11.991,20.283,12.368,20.898,12.755,21.499z
	 M18.025,25.854c-0.728-0.785-1.453-1.653-2.162-2.587c0.688,0.026,1.39,0.041,2.103,0.041c0.732,0,1.456-0.018,2.169-0.049
	C19.434,24.211,18.728,25.08,18.025,25.854z M25.351,17.74c0.48,1.094,0.885,2.153,1.206,3.16c-1.041,0.238-2.166,0.43-3.352,0.571
	c0.38-0.603,0.748-1.212,1.104-1.828C24.67,19.017,25.018,18.382,25.351,17.74z M22.979,18.877
	c-0.544,0.945-1.119,1.873-1.724,2.781c-1.095,0.077-2.192,0.115-3.29,0.115c-1.118,0-2.206-0.035-3.253-0.104
	c-0.62-0.905-1.206-1.834-1.757-2.785h0.001c-0.548-0.945-1.06-1.91-1.533-2.895c0.473-0.984,0.982-1.951,1.528-2.896l0,0
	c0.545-0.946,1.126-1.871,1.742-2.773c1.068-0.081,2.164-0.123,3.271-0.123l0,0c1.112,0,2.209,0.042,3.277,0.124
	c0.609,0.901,1.188,1.823,1.731,2.764c0.548,0.944,1.064,1.905,1.549,2.883C24.043,16.955,23.528,17.926,22.979,18.877z
	 M26.146,1.736c1.203,0.694,1.671,3.492,0.915,7.162c-0.049,0.234-0.103,0.473-0.162,0.714c-1.49-0.344-3.109-0.6-4.804-0.759
	c-0.987-1.406-2.011-2.684-3.037-3.791c0.269-0.259,0.545-0.512,0.826-0.758C22.536,1.997,25.016,1.085,26.146,1.736z
	 M17.965,12.745c1.771,0,3.208,1.437,3.208,3.208s-1.437,3.208-3.208,3.208c-1.772,0-3.209-1.437-3.209-3.208
	S16.193,12.745,17.965,12.745z"/>
</svg>
